<svg width="320" height="400" viewBox="0 0 320 400" fill="none" xmlns="http://www.w3.org/2000/svg">
<path d="M161.427 278.546L210.274 176.616L161.309 398.495L110.617 172.526L161.427 278.546Z" fill="#860909"/>
<path d="M161.568 399.646L92.5639 92.0468C92.5088 91.6661 92.3335 91.3167 92.067 91.056C91.8005 90.7952 91.4586 90.6387 91.0974 90.6122H1.52085C0.311606 90.6122 -0.413943 92.348 0.254999 93.6513L161.177 399.871C161.311 400.139 161.63 399.953 161.568 399.646Z" fill="#B20000"/>
<path d="M161.055 399.646L228.938 92.0468C228.989 91.6692 229.16 91.3214 229.422 91.0607C229.683 90.7999 230.021 90.6418 230.378 90.6122H318.499C319.692 90.6122 320.408 92.348 319.749 93.6513L161.457 399.871C161.308 400.139 160.988 399.953 161.055 399.646Z" fill="#B20000"/>
<path d="M212.333 90.583H108.493C108.165 90.5635 107.843 90.6826 107.598 90.9143C107.352 91.1461 107.202 91.4718 107.181 91.8205V101.431C107.202 101.78 107.352 102.105 107.598 102.337C107.843 102.569 108.165 102.688 108.493 102.668H212.333C212.661 102.688 212.982 102.569 213.227 102.337C213.472 102.105 213.621 101.779 213.641 101.431V91.8205C213.621 91.4723 213.472 91.1466 213.227 90.9147C212.982 90.6828 212.661 90.5635 212.333 90.583Z" fill="#860909"/>
<path d="M162.687 0C163.173 0.00391404 163.647 0.164446 164.046 0.460156L207.63 32.9375C207.888 33.1285 208.108 33.3721 208.278 33.6539C208.447 33.9358 208.563 34.2509 208.618 34.5805C208.673 34.9097 208.665 35.2472 208.597 35.5734C208.528 35.8997 208.398 36.2079 208.216 36.4805L172.641 90.5828H161.012L196.335 36.8914L164.432 13.1148L124.392 73.9961L146.639 90.5828H130.082L113.103 77.95C112.844 77.7609 112.623 77.5175 112.454 77.2352C112.285 76.9528 112.171 76.6372 112.12 76.307C112.056 75.9784 112.056 75.6388 112.12 75.3102C112.187 74.9842 112.317 74.6767 112.501 74.407L160.737 1.10625C160.957 0.77242 161.248 0.498673 161.586 0.307031C161.927 0.119875 162.304 0.021825 162.687 0.021875V0Z" fill="#B20000"/>
<path d="M168.698 61.65L124.682 73.5555L129.641 66.0156L162.58 57.1047L159.177 21.1031L164.155 13.5344L168.698 61.65Z" fill="#B20000"/>
</svg>
